<?xml version="1.0" standalone="no"?>
<svg viewBox="0 0 200 200" xmlns="http://www.w3.org/2000/svg">
  <path fill="#D8572A" d="M36.2,-64.6C45.2,-57.4,49.8,-44.4,55.4,-32.7C60.9,-20.9,67.5,-10.5,72,2.6C76.5,15.7,79,31.4,72.2,40.9C65.3,50.4,49.1,53.6,35.5,58.9C21.9,64.3,10.9,71.6,-1.7,74.6C-14.3,77.5,-28.7,76,-41,69.9C-53.3,63.9,-63.7,53.3,-70.9,40.9C-78.2,28.5,-82.5,14.2,-79.6,1.7C-76.7,-10.9,-66.6,-21.8,-58.1,-32C-49.5,-42.1,-42.4,-51.6,-32.9,-58.6C-23.5,-65.6,-11.8,-70.1,0.9,-71.7C13.5,-73.2,27.1,-71.8,36.2,-64.6Z" transform="translate(100 100)" />
</svg>
